# xmcd CD database file
#
# Track frame offsets:
#	150
#	20358
#	35855
#	51500
#	66302
#	78731
#	94169
#	114168
#	127812
#	143137
#	162499
#	194564
#	210672
#	245590
#
# Disc length: 3650 seconds
#
# Revision: 1
# Processed by: cddbd v1.5.2PL0 Copyright (c) Steve Scherf et al.
# Submitted via: CDex 1.51
#
DISCID=cf0e400e
DTITLE=sampler - wicked jazz sounds Vol. 4 CD2/2
DYEAR=2008
DGENRE=Jazz
TTITLE0=01 - Kib Sublime - Somethin' about your love
TTITLE1=02 - Detroit Experiment - Highest
TTITLE2=03 - Up Hygh - Compatible
TTITLE3=04 - Jerry Butler - I'm your mechanical men
TTITLE4=05 - Method men - Bring the pain
TTITLE5=06 - O. Boggy - Paper Chaser
TTITLE6=07 - Angela Bofill - People make the world go around
TTITLE7=08 - Likwid Biskid - Inner war
TTITLE8=09 - The politik - Money
TTITLE9=10 - Daz-I-Kue - Rokstone
TTITLE10=11 - Herbie Hancock - Just around the corner
TTITLE11=12 - Cesaria Evora - Angola
TTITLE12=13 - Henrik Schwarz - Jon
TTITLE13=14 - Marcos Valle - Besteiras de amor
EXTD=YEAR: 2008
EXTT0=
EXTT1=
EXTT2=
EXTT3=
EXTT4=
EXTT5=
EXTT6=
EXTT7=
EXTT8=
EXTT9=
EXTT10=
EXTT11=
EXTT12=
EXTT13=
PLAYORDER=
